<?xml version="1.0" encoding="UTF-8"?>
<svg id="Layer_1" data-name="Layer 1" xmlns="http://www.w3.org/2000/svg" viewBox="0 0 392.5 326.56">
  <defs>
    <style>
      .cls-1 {
        fill-rule: evenodd;
      }
    </style>
  </defs>
  <path class="cls-1" d="m225.21,0c19.98-.05,32.27,20.02,42.89,30.64,31.4,31.4,62.81,62.81,94.21,94.21,8.47,8.47,37.76,28.5,28.34,47.49-2.46,4.95-7.72,8.49-11.49,12.26-8.68,8.68-17.36,17.36-26.04,26.04-28.34,28.34-56.68,56.68-85.02,85.02-8.26,8.26-27.85,36.62-45.96,29.87-10.44-3.89-32.65-25.34-26.04-41.36,3.96-9.61,18.69-20.23,26.04-27.57,20.68-20.68,41.36-41.36,62.04-62.04v-.77H17.63c-6.59-4.54-12.81-5.22-16.09-13.02C-.28,176.4.02,170.73.02,164.68c0-18.34,2.79-28.36,16.85-32.17h266.55v-.77c-23.49-23.49-46.98-46.98-70.47-70.47-6.08-6.08-20.8-14.9-18.38-28.34,2.01-11.15,14.85-24.83,22.98-29.87,2.35-1.46,5.46-1.5,7.66-3.06Z"/>
</svg>