<svg id="Layer_1" data-name="Layer 1" xmlns="http://www.w3.org/2000/svg" viewBox="0 0 217.16 424.51"><defs><style>.cls-1{fill:#fff;}</style></defs><title>BA_Independent_Seal_rev</title><polygon class="cls-1" points="181.91 5.78 181.91 10.41 193.25 10.41 193.25 378.49 193.25 413.57 152.09 413.57 152.09 418.2 197.88 418.2 197.88 378.49 197.88 5.78 181.91 5.78"/><polygon class="cls-1" points="4.63 378.49 4.63 10.41 44.66 10.41 44.66 5.78 0 5.78 0 418.2 74.35 418.2 74.35 413.57 4.63 413.57 4.63 378.49"/><path class="cls-1" d="M43.9,392.53v10.15H20.59V393c0-4.85,2.71-7.43,6.74-7.43A5.62,5.62,0,0,1,32,388.14,5.42,5.42,0,0,1,37,385.26C41.47,385.26,43.9,388.37,43.9,392.53Zm-18.17.85V397h3.79v-3.57a1.9,1.9,0,1,0-3.79,0Zm8.93-.29V397h4.1v-3.86a1.93,1.93,0,0,0-2.07-2.1A1.9,1.9,0,0,0,34.66,393.09Z" transform="translate(-5.28 -4.98)"/><path class="cls-1" d="M43.9,368.7l-8.68,4.12v1.93H43.9v5.73H20.59v-9.23c0-5.17,3.66-8,7.49-8a6.7,6.7,0,0,1,6.09,3.8l9.73-5Zm-18.17,2.81v3.24h4.71v-3.24a2.36,2.36,0,1,0-4.71,0Z" transform="translate(-5.28 -4.98)"/><path class="cls-1" d="M43.9,358.32H20.59V342.48h5.1v10.11h3.9V344H34.7v8.64h4.09V342.48H43.9Z" transform="translate(-5.28 -4.98)"/><path class="cls-1" d="M43.9,316.68v4.68l-11.5,3.77,11.5,3.76v4.65L20.59,340v-6l12.31-3.05-12.31-3.76V323.1l12.31-3.77-12.31-3v-6Z" transform="translate(-5.28 -4.98)"/><path class="cls-1" d="M43.9,307.12H20.59V291.28h5.1v10.11h3.9v-8.64H34.7v8.64h4.09V291.28H43.9Z" transform="translate(-5.28 -4.98)"/><path class="cls-1" d="M43.9,274.81l-8.68,4.13v1.93H43.9v5.73H20.59v-9.24c0-5.17,3.66-7.95,7.49-7.95a6.68,6.68,0,0,1,6.09,3.8l9.73-5Zm-18.17,2.82v3.24h4.71v-3.24a2.36,2.36,0,1,0-4.71,0Z" transform="translate(-5.28 -4.98)"/><path class="cls-1" d="M44.09,258.44c0,3.57-.65,6.49-3.08,8.84l-3.66-3.66c1.21-1.22,1.63-3.34,1.63-5.21,0-2.26-.75-3.34-2.09-3.34a1.94,1.94,0,0,0-1.38.46,2.64,2.64,0,0,0-.62,1.54l-.39,2.81a7.87,7.87,0,0,1-2.06,4.69,6.47,6.47,0,0,1-4.68,1.6c-4.26,0-7.37-3.21-7.37-8.51,0-3.34.78-5.86,2.78-7.86l3.6,3.6a5.76,5.76,0,0,0-1.37,4.42c0,2,1.14,2.82,2.16,2.82a1.54,1.54,0,0,0,1.08-.46,2.69,2.69,0,0,0,.69-1.61l.39-2.81a7.79,7.79,0,0,1,1.93-4.58,6.77,6.77,0,0,1,5.11-1.74C41.51,249.44,44.09,253.53,44.09,258.44Z" transform="translate(-5.28 -4.98)"/><path class="cls-1" d="M43.9,223.74l-3.47,1.08V232l3.47,1.15v6l-23.31-8.48v-4.42l23.31-8.48Zm-14.48,4.55,6.23,2.1v-4.06Z" transform="translate(-5.28 -4.98)"/><path class="cls-1" d="M44.09,208.59c0,3.57-.65,6.48-3.08,8.84l-3.66-3.67c1.21-1.21,1.63-3.34,1.63-5.21,0-2.25-.75-3.34-2.09-3.34a2,2,0,0,0-1.38.46,2.67,2.67,0,0,0-.62,1.54L34.5,210a7.87,7.87,0,0,1-2.06,4.68,6.47,6.47,0,0,1-4.68,1.6c-4.26,0-7.37-3.21-7.37-8.51,0-3.34.78-5.86,2.78-7.86l3.6,3.61A5.75,5.75,0,0,0,25.4,208c0,2,1.14,2.81,2.16,2.81a1.54,1.54,0,0,0,1.08-.46,2.63,2.63,0,0,0,.69-1.6l.39-2.82a7.82,7.82,0,0,1,1.93-4.58,6.81,6.81,0,0,1,5.11-1.74C41.51,199.58,44.09,203.68,44.09,208.59Z" transform="translate(-5.28 -4.98)"/><path class="cls-1" d="M44.09,189c0,3.57-.65,6.48-3.08,8.84l-3.66-3.67C38.56,193,39,190.84,39,189c0-2.26-.75-3.34-2.09-3.34a1.94,1.94,0,0,0-1.38.46,2.61,2.61,0,0,0-.62,1.54l-.39,2.81a7.84,7.84,0,0,1-2.06,4.68,6.48,6.48,0,0,1-4.68,1.61c-4.26,0-7.37-3.21-7.37-8.51,0-3.34.78-5.86,2.78-7.86l3.6,3.6a5.75,5.75,0,0,0-1.37,4.42c0,2,1.14,2.81,2.16,2.81a1.53,1.53,0,0,0,1.08-.45,2.69,2.69,0,0,0,.69-1.61l.39-2.81a7.86,7.86,0,0,1,1.93-4.59A6.81,6.81,0,0,1,36.76,180C41.51,180,44.09,184.1,44.09,189Z" transform="translate(-5.28 -4.98)"/><path class="cls-1" d="M41.47,161.45a9.41,9.41,0,0,1,0,13c-2.45,2.45-5.73,2.35-9.23,2.35s-6.78.1-9.23-2.35a9.41,9.41,0,0,1,0-13c2.45-2.46,5.73-2.36,9.23-2.36S39,159,41.47,161.45Zm-15,4.22a3.1,3.1,0,0,0,0,4.58c.69.53,1.47.86,5.73.86s5-.33,5.7-.86a3,3,0,0,0,0-4.58c-.69-.52-1.44-.85-5.7-.85S27.2,165.15,26.51,165.67Z" transform="translate(-5.28 -4.98)"/><path class="cls-1" d="M44.09,146.88a8.64,8.64,0,0,1-2.62,6.48c-2.45,2.46-5.73,2.36-9.23,2.36s-6.78.1-9.23-2.36a8.67,8.67,0,0,1-2.62-6.48c0-4.42,2.45-8,7.59-8.84v5.83a2.88,2.88,0,0,0-2.48,3,2.78,2.78,0,0,0,1,2.26c.69.52,1.5.88,5.76.88s5.07-.36,5.76-.88a2.78,2.78,0,0,0,1-2.26,2.88,2.88,0,0,0-2.48-3V138C41.64,138.89,44.09,142.46,44.09,146.88Z" transform="translate(-5.28 -4.98)"/><path class="cls-1" d="M43.9,134.21H20.59v-5.73H43.9Z" transform="translate(-5.28 -4.98)"/><path class="cls-1" d="M43.9,109.92,40.43,111v7.17l3.47,1.15v6l-23.31-8.48v-4.42l23.31-8.48Zm-14.48,4.55,6.23,2.1v-4.06Z" transform="translate(-5.28 -4.98)"/><path class="cls-1" d="M25.69,94H43.9v5.73H25.69v5.72h-5.1V88.22h5.1Z" transform="translate(-5.28 -4.98)"/><path class="cls-1" d="M43.9,85H20.59V79.31H43.9Z" transform="translate(-5.28 -4.98)"/><path class="cls-1" d="M41.47,59.8a8.54,8.54,0,0,1,2.62,6.52,8.51,8.51,0,0,1-2.62,6.51c-2.45,2.46-5.73,2.36-9.23,2.36s-6.78.1-9.23-2.36a8.54,8.54,0,0,1-2.62-6.51A8.58,8.58,0,0,1,23,59.8c2.45-2.45,5.73-2.35,9.23-2.35S39,57.35,41.47,59.8ZM26.51,64a3.1,3.1,0,0,0,0,4.58c.69.52,1.47.85,5.73.85s5-.33,5.7-.85a3,3,0,0,0,0-4.58c-.69-.53-1.44-.85-5.7-.85S27.2,63.5,26.51,64Z" transform="translate(-5.28 -4.98)"/><path class="cls-1" d="M43.9,40.13,32.18,47.59H43.9v5.73H20.59v-5l11.72-7.46H20.59V35.12H43.9Z" transform="translate(-5.28 -4.98)"/><path class="cls-1" d="M61.4,21.2A5.9,5.9,0,0,1,57,19.4c-1.68-1.68-1.62-3.92-1.62-6.31S55.29,8.45,57,6.77A5.9,5.9,0,0,1,61.4,5a5.77,5.77,0,0,1,6.05,5.19h-4a2,2,0,0,0-2-1.7,1.91,1.91,0,0,0-1.55.67c-.36.47-.61,1-.61,3.95s.25,3.47.61,3.94a1.91,1.91,0,0,0,1.55.67,2,2,0,0,0,2-1.7h4A5.77,5.77,0,0,1,61.4,21.2Z" transform="translate(-5.28 -4.98)"/><path class="cls-1" d="M71.75,21.06V5.11H82.6v3.5H75.67v2.66h5.92v3.5H75.67v2.8H82.6v3.49Z" transform="translate(-5.28 -4.98)"/><path class="cls-1" d="M95.68,21.06l-2.82-5.94H91.54v5.94H87.62V5.11h6.31a5.1,5.1,0,0,1,5.45,5.13,4.61,4.61,0,0,1-2.6,4.17l3.45,6.65ZM93.75,8.63H91.54v3.22h2.21a1.61,1.61,0,1,0,0-3.22Z" transform="translate(-5.28 -4.98)"/><path class="cls-1" d="M111.36,8.61V21.06h-3.92V8.61h-3.92V5.11h11.76v3.5Z" transform="translate(-5.28 -4.98)"/><path class="cls-1" d="M119.81,21.06V5.11h3.92v16Z" transform="translate(-5.28 -4.98)"/><path class="cls-1" d="M133.12,8.61v2.8H139V14.9h-5.91v6.16H129.2V5.11H140v3.5Z" transform="translate(-5.28 -4.98)"/><path class="cls-1" d="M144.79,21.06V5.11h3.92v16Z" transform="translate(-5.28 -4.98)"/><path class="cls-1" d="M154.18,21.06V5.11H165v3.5H158.1v2.66H164v3.5H158.1v2.8H165v3.49Z" transform="translate(-5.28 -4.98)"/><path class="cls-1" d="M180.26,19.49a5.94,5.94,0,0,1-4.3,1.57H170V5.11H176a5.94,5.94,0,0,1,4.3,1.57c1.86,1.86,1.65,3.9,1.65,6.41S182.12,17.63,180.26,19.49Zm-2.69-10a2,2,0,0,0-1.88-.89H174v9h1.73a2,2,0,0,0,1.88-.9c.31-.45.42-.87.42-3.58S177.88,10,177.57,9.5Z" transform="translate(-5.28 -4.98)"/><path class="cls-1" d="M93.88,233.87H88.5v7.65h5.38c2.48,0,4-1.46,4-3.81A3.7,3.7,0,0,0,93.88,233.87Z" transform="translate(-5.28 -4.98)"/><polygon class="cls-1" points="106.74 242.1 113.91 242.1 110.37 231.43 106.74 242.1"/><path class="cls-1" d="M73.93,190.58H71.34V217h2.59c4.1,0,6.47-2,6.47-8V198.53C80.4,192.9,78.57,190.58,73.93,190.58Z" transform="translate(-5.28 -4.98)"/><path class="cls-1" d="M80.83,149.88q0-5.62-5.5-5.63h-4v11.26h4Q80.84,155.51,80.83,149.88Z" transform="translate(-5.28 -4.98)"/><path class="cls-1" d="M181,48.92c-.19-1.05-.43-2.07-.71-3.05a26.73,26.73,0,0,0-1-2.85,21.16,21.16,0,0,0-6.47-8.38h0a.78.78,0,0,0-.18-.11.2.2,0,0,0-.08,0l-.16-.07-.12-.05-.19-.06-.15-.05-.22-.06-.18,0-.26-.06-.19,0-.3-.06-.21,0-.37-.06-.18,0-.6-.09h0l-.62-.08h0L168,33.6h0c-1.78-.2-4-.38-6.42-.54h0l-2-.13h0c-1.65-.09-3.4-.18-5.2-.25h0l-2.19-.09h0c-4.44-.17-9.13-.3-13.59-.39h0c-4.27-.09-8.31-.15-11.7-.18h-3.23l-2.14,0h-5.71l-2.14,0h-3.23c-3.39,0-7.43.09-11.69.18h0c-4.46.09-9.15.22-13.59.39h0l-2.19.09h0c-1.81.07-3.56.16-5.21.25h0l-2,.13h0c-2.45.16-4.64.34-6.42.54h0l-.72.09h0l-.62.08h0l-.59.09-.19,0-.37.06-.2,0-.31.06-.19,0-.26.06-.17,0-.23.06-.14.05-.2.06-.11.05-.17.07a.3.3,0,0,0-.08,0,.78.78,0,0,0-.18.11h0A21.19,21.19,0,0,0,58,43a24.65,24.65,0,0,0-1,2.85,28.88,28.88,0,0,0-.71,3.05,47.34,47.34,0,0,0-.67,8.5h0c0,.2,0,.43,0,.68a2.35,2.35,0,0,0,0,.26l0,.55c0,.11,0,.21,0,.32s0,.4.05.61,0,.21,0,.31a.45.45,0,0,1,0,.11v.12l0,.3,0,.4c0,.11,0,.23,0,.35a1.79,1.79,0,0,0,0,.23c0,.48.09,1,.13,1.46v.09c0,.31.06.62.08.92,0,.06,0,.11,0,.17l.06.67c0,.12,0,.24,0,.35s0,.21,0,.3,0,.22,0,.33,0,.17,0,.25,0,.23,0,.33a1.09,1.09,0,0,1,0,.18v.43c0,.34,0,.71,0,1.1v.42c0,.29,0,.58,0,.9V70c0,.33,0,.67,0,1v.51c0,.33,0,.67,0,1v.66c0,.35,0,.71,0,1.07s0,.44,0,.67c0,.51,0,1,0,1.57v.24c0,1.34,0,2.78,0,4.3v.26c0,.67,0,1.37,0,2.08v.37c0,.65,0,1.3,0,2v.7c0,.59,0,1.19,0,1.81v.69c0,.78,0,1.57,0,2.38v.12c0,3.73,0,7.74,0,12h0v3.3c0,1,0,2,0,3v.44c0,5.51,0,11.31,0,17.28v.06c0,6,0,12.24,0,18.51v27.2c0,1.37,0,2.73,0,4.09,0,.92,0,1.83,0,2.74v4.25c0,.59,0,1.17,0,1.74v4.2c0,1.34,0,2.67,0,4v.95c0,1,0,1.92,0,2.87,0,.63,0,1.26,0,1.89v2c0,.61,0,1.22,0,1.82,0,1.22,0,2.43,0,3.62v.36c0,1.12,0,2.21,0,3.29V212c0,.86,0,1.72,0,2.56v1c0,1.14,0,2.27,0,3.36,0,.92,0,1.82,0,2.7s0,1.85,0,2.74c0,.32,0,.64,0,1,0,.55,0,1.11,0,1.64,0,.33,0,.66,0,1,0,.54,0,1.07,0,1.59v.76c0,.53,0,1,0,1.56,0,.28,0,.56,0,.83,0,.45,0,.9,0,1.33,0,.25,0,.5,0,.74,0,.45,0,.88,0,1.31,0,.22,0,.44,0,.66,0,.4,0,.77,0,1.14,0,.21,0,.43,0,.63,0,.54,0,1.06,0,1.54,0,.91,0,1.71,0,2.39,0,.34,0,.65,0,.93s0,.53,0,.75,0,.4,0,.55q0,1.38,0,2.76c0,.1,0,.21,0,.31l-.06,2.56v0c0,1.36-.07,2.72-.07,4.11v.78c0,.26,0,.53,0,.79s0,.33,0,.49l0,.78c0,.17,0,.33,0,.49s0,.56,0,.84l0,.44c0,.36.05.72.08,1.09,0,.07,0,.13,0,.2,0,.44.08.87.13,1.31,0,.12,0,.24,0,.36l.12,1c0,.16.05.33.08.49s.08.58.13.87.07.35.1.53.11.57.16.86.07.36.11.54l.21.91.12.51c.09.37.18.73.28,1.1l.09.34c.14.49.28,1,.44,1.47,0,.12.08.23.11.35.13.38.25.77.39,1.16.06.17.13.35.19.53s.24.67.37,1l.24.61c.13.32.26.65.4,1l.27.62c.15.34.3.69.46,1s.18.4.28.6c.18.4.38.8.58,1.2.08.15.15.31.23.47.29.56.58,1.13.9,1.7l.13.24c.27.5.56,1,.85,1.51l.36.59q.34.6.72,1.2l.43.69c.24.38.49.77.75,1.16s.31.49.48.73c.26.4.54.8.82,1.2l.49.71q.46.68,1,1.35l.45.61q1.45,2,3.14,4.07l.11.13c.23.3.49.6.73.9l.71.85c.3.37.63.75.94,1.12l.71.83,1.1,1.25.65.74,1.66,1.83.2.21c.27.3.55.57.82.85a11.81,11.81,0,0,1,1,1.17h0l.15.19h0a8,8,0,0,1,.51.81h0l.15.3h0c.1.22.2.46.29.72h0a8.37,8.37,0,0,1,.25.84h0a1.17,1.17,0,0,0,0,.2v0a7.22,7.22,0,0,1,.15.73h0c.06.29.1.59.14.91v.09c0,.31.07.63.09,1a.66.66,0,0,1,0,.14c0,.35,0,.71.06,1.1v.15c0,.4,0,.81,0,1.26,0,1.08,0,2.31-.14,3.7,0,.6-.06,1.24-.08,1.89,0,.08,0,.14,0,.22v1.69c0,.28,0,.56,0,.85s0,.41,0,.61,0,.67,0,1l0,.51c0,.4,0,.8.08,1.21,0,.11,0,.23,0,.34l.12,1.5s0,.07,0,.1c.83,9.32,3,20.9,5.39,32.59v.07c.25,1.26.51,2.52.76,3.79.64,3.12,1.27,6.24,1.88,9.31.08.39.15.78.23,1.18.23,1.17.46,2.34.68,3.49,0,.2.08.4.11.6.2,1,.38,2,.56,3l.12.63c.42,2.3.82,4.56,1.17,6.73v0c.32,2,.61,3.9.85,5.74,0,.1,0,.2,0,.3.1.74.19,1.46.27,2.17,0,.21,0,.41.07.61.08.8.16,1.57.23,2.33v0c.14,1.62.23,3.15.26,4.56q0,1.07,0,2h0v0c0,.64,0,1.25-.1,1.83a2.68,2.68,0,0,0-1.24.65l0,0-.07.06,0,.06-.08.1a1.39,1.39,0,0,0-.15.19,2.34,2.34,0,0,0-.26.43h0a2.51,2.51,0,0,0-.16.46.8.8,0,0,0,0,.15,2,2,0,0,0,0,.24c0,.15,0,.3,0,.46s0,.12,0,.18,0,.07,0,.11,0,.3,0,.46.08.41.13.62.05.21.09.32l0,.05.11.29a.36.36,0,0,1,0,.09l.16.33a7.19,7.19,0,0,0,.68,1.11l.09.1,0,0a3.9,3.9,0,0,0,.33.38,6.2,6.2,0,0,0,.52.5h0v0h0l-.13,3A26,26,0,0,0,92,419c-.29.3,0,1.89.78,3.37.62,1.15,3.8,7.15,7.46,7.15h36.86c3.66,0,6.84-6,7.46-7.15.8-1.48,1.07-3.07.77-3.37a25.82,25.82,0,0,0-3.83-.55l-.12-3h0v0h0c.18-.16.35-.33.52-.5l.33-.38,0,0,.09-.1a6.49,6.49,0,0,0,.68-1.11,2.49,2.49,0,0,0,.16-.33.36.36,0,0,0,0-.09c0-.1.08-.19.11-.29a.08.08,0,0,0,0-.05c0-.11.06-.22.09-.32a4.9,4.9,0,0,0,.13-.62,2.49,2.49,0,0,0,0-.46.43.43,0,0,0,0-.11c0-.06,0-.12,0-.18a2.32,2.32,0,0,0,0-.46,2,2,0,0,0,0-.24c0-.05,0-.1,0-.15a3.61,3.61,0,0,0-.17-.46h0a3,3,0,0,0-.25-.43l-.15-.19-.08-.1-.06-.06-.06-.06,0,0a2.77,2.77,0,0,0-1.25-.65q-.07-.87-.09-1.83v0h0q0-1,0-2c0-1.41.11-2.94.25-4.56v0c.06-.76.14-1.53.23-2.33,0-.2,0-.4.07-.61.08-.71.17-1.43.26-2.17,0-.1,0-.2,0-.3q.38-2.76.85-5.74v0c.36-2.17.75-4.43,1.17-6.73l.12-.63c.18-1,.37-2,.56-3,0-.2.07-.4.11-.6.23-1.15.45-2.32.68-3.49l.24-1.18c.61-3.07,1.24-6.19,1.87-9.31.26-1.27.51-2.53.76-3.79l0-.07c2.35-11.69,4.56-23.27,5.39-32.59v-.1c.05-.5.09-1,.13-1.5,0-.11,0-.23,0-.34,0-.41,0-.81.08-1.21,0-.17,0-.34,0-.51,0-.33,0-.67,0-1s0-.41,0-.61,0-.57,0-.85,0-.44,0-.66,0-.51,0-.76v-.27a1.62,1.62,0,0,0,0-.22c0-.65,0-1.29-.07-1.89-.1-1.39-.14-2.62-.15-3.7,0-.45,0-.86,0-1.26a.76.76,0,0,0,0-.15c0-.39,0-.75,0-1.1a.66.66,0,0,0,0-.14c0-.35.06-.67.1-1v-.09c0-.32.08-.62.13-.91h0c.05-.26.1-.5.15-.73v0a1.94,1.94,0,0,1,0-.2h0a8.33,8.33,0,0,1,.26-.84h0a6,6,0,0,1,.3-.72h0l.15-.3h0a8,8,0,0,1,.51-.81h0l.15-.19h0a11.89,11.89,0,0,1,1.06-1.17l.82-.85.19-.21,1.66-1.83.65-.74c.37-.42.75-.84,1.1-1.25s.47-.55.71-.83l.95-1.12.7-.85.74-.9a1.13,1.13,0,0,0,.1-.13c1.13-1.39,2.17-2.75,3.15-4.07l.44-.61c.33-.45.66-.9,1-1.35l.49-.71.82-1.2.48-.73.74-1.16c.15-.23.29-.46.43-.69.25-.4.49-.8.73-1.2l.35-.59c.3-.51.58-1,.85-1.51l.14-.24c.31-.57.61-1.14.9-1.7.08-.16.15-.32.23-.47.2-.4.39-.8.58-1.2l.27-.6c.16-.34.32-.69.47-1s.17-.41.26-.62l.41-1c.08-.2.15-.4.23-.59.13-.34.25-.68.37-1s.13-.36.2-.53c.13-.39.26-.78.38-1.16l.12-.35c.15-.49.3-1,.43-1.47l.09-.34c.1-.37.2-.73.29-1.1l.12-.51c.07-.31.14-.61.2-.91s.08-.36.11-.54.11-.58.17-.86l.09-.53c.05-.29.1-.58.14-.87s0-.33.07-.49c0-.32.09-.65.13-1,0-.12,0-.24,0-.36.05-.44.09-.87.13-1.31,0-.07,0-.13,0-.2,0-.37.06-.73.08-1.09,0-.15,0-.29,0-.44s0-.56.05-.84,0-.32,0-.49,0-.52,0-.78,0-.33,0-.49,0-.53,0-.79v-.45a1.34,1.34,0,0,1,0-.2s0-.08,0-.13c0-1.39,0-2.75-.06-4.11v0c0-.87-.05-1.72-.07-2.58v-.29c0-.92,0-1.84,0-2.76,0-.15,0-.34,0-.55s0-.47,0-.75,0-.59,0-.93c0-.68,0-1.48,0-2.39,0-.48,0-1,0-1.54,0-.2,0-.42,0-.63,0-.37,0-.74,0-1.14v-.66c0-.43,0-.86,0-1.31,0-.24,0-.49,0-.74,0-.43,0-.88,0-1.33,0-.27,0-.55,0-.83,0-.51,0-1,0-1.56,0-.25,0-.5,0-.76,0-.52,0-1,0-1.59,0-.32,0-.65,0-1,0-.53,0-1.09,0-1.64v-1c0-.89,0-1.8,0-2.74s0-1.78,0-2.7c0-1.09,0-2.22,0-3.36v-1c0-.84,0-1.7,0-2.56,0-.37,0-.73,0-1.1,0-1.08,0-2.17,0-3.29v-.36c0-1.19,0-2.4,0-3.62v-1.82c0-.65,0-1.3,0-2V198c0-.95,0-1.91,0-2.87v-.95c0-1.31,0-2.64,0-4v-1.54c0-.88,0-1.77,0-2.66v-1.74c0-.94,0-1.9,0-2.86v-4.13c0-1.36,0-2.72,0-4.09V161.78c0-1.1,0-2.19,0-3.29V146c0-6.27,0-12.47,0-18.51v-.06c0-6,0-11.77,0-17.28v-.44c0-1,0-2,0-3v-.14c0-1.07,0-2.12,0-3.16h0c0-4.23,0-8.24,0-12V91.3c0-.81,0-1.6,0-2.38,0-.24,0-.47,0-.69,0-.62,0-1.22,0-1.81v-.7c0-.67,0-1.32,0-2v-.37c0-.71,0-1.41,0-2.08V81c0-1.52,0-3,0-4.3V76.5c0-.54,0-1.06,0-1.57v-.67c0-.36,0-.72,0-1.07s0-.44,0-.66,0-.69,0-1c0-.17,0-.34,0-.51,0-.36,0-.7,0-1,0-.14,0-.28,0-.41,0-.32,0-.61,0-.9,0-.14,0-.28,0-.42,0-.39,0-.76,0-1.1,0-.13,0-.28,0-.43v-.18c0-.1,0-.21,0-.33s0-.17,0-.25,0-.21,0-.33,0-.19,0-.3l0-.35.06-.67a1,1,0,0,1,0-.17c0-.3,0-.61.08-.92v-.09c.05-.49.09-1,.14-1.46a1.79,1.79,0,0,1,0-.23l0-.35c0-.14,0-.26,0-.4s0-.2,0-.3v-.12a.37.37,0,0,0,0-.11l0-.31c0-.21,0-.42,0-.61s0-.21,0-.32,0-.37,0-.55,0-.18,0-.26c0-.25,0-.48,0-.68h0A48.28,48.28,0,0,0,181,48.92ZM137.39,161.48V137.86h6.79V177.7h-7.12L125.68,152h-.1V177.7h-6.8V137.86h8.14l10.36,23.62Zm6.79,22.27v39.84h-7.12l-11.38-25.71h-.1v25.71h-6.8V183.75h8.15l10.35,23.62h.11V183.75ZM109.25,92.07h10.36c8.52,0,13.26,3.75,13.59,13.8v12.25c-.33,10-5.07,13.79-13.59,13.79H109.25Zm1.07,107.67v6.74h-9.87V217h13.48v6.73H93V183.85h20.38v6.73H100.45v9.16ZM93,177.8V138h20.38v6.73H100.45v9.16h9.87v6.74h-9.87v10.48h13.48v6.73ZM77.82,92.07H86l10.35,23.62h.11V92.07h6.79v39.84H96.1L84.72,106.2h-.11v25.71H77.82Zm-13.92,0h7.44v39.84H63.9Zm0,45.89H74.63c9.17,0,13.65,4.42,13.65,11.92S83.8,161.8,74.63,161.8H71.34v16H63.9Zm5.28,112.73a4.72,4.72,0,0,0,3.52,1.48c2.47,0,4.24-1.54,4.85-4.22l0-.1h4l0,.15c-.79,4.85-4.18,7.86-8.84,7.86a8.92,8.92,0,0,1-6.52-2.73c-2.4-2.48-2.4-5.31-2.4-10v-.41c0-4.69,0-7.53,2.4-10A8.91,8.91,0,0,1,72.7,230c4.7,0,8,2.93,8.84,7.85l0,.15h-4l0-.1c-.61-2.68-2.37-4.22-4.82-4.22a4.72,4.72,0,0,0-3.52,1.48c-1.17,1.32-1.44,2.77-1.44,7.78S68,249.38,69.18,250.69Zm5.08-27H63.9V183.85H74.26c8.52,0,13.26,3.75,13.58,13.8V209.9C87.52,219.94,82.78,223.69,74.26,223.69Zm23.83,32L92.94,245H88.5v10.63h-4V230.19h9.61c4.62,0,7.72,3,7.72,7.49A6.69,6.69,0,0,1,97,244.45l5.66,11.2Zm23.9,0-1.69-5.07h-9.47l-1.68,5.07h-4.22l.06-.17,9-25.29h3.16l0,.08,9,25.38Zm22.72-21.78H132.79v7.43H143V245H132.79v10.66h-4V230.19h15.88Zm-6.55-102V92.07h20.38V98.8H145.6V108h9.87v6.73H145.6v10.49h13.48v6.73Zm26.65,102h-6.73v21.78h-4V233.87h-6.73v-3.68h17.42Zm8.56-43.29h-8.68v33.11h-7.44V190.58h-8.68v-6.73h24.8Z" transform="translate(-5.28 -4.98)"/><path class="cls-1" d="M125.75,117.23V106.75c0-5.63-1.83-8-6.47-8H116.7v26.38h2.58C123.38,125.18,125.75,123.19,125.75,117.23Z" transform="translate(-5.28 -4.98)"/><path class="cls-1" d="M213.9,413.29h2.88a2.29,2.29,0,0,1,1.5.48,2,2,0,0,1,.73,1.57,2,2,0,0,1-1.43,2.05l1.71,3.27H218l-1.52-3.15H215v3.15H213.9Zm1.12,3.23h1.68a1.2,1.2,0,0,0,.94-.37,1.12,1.12,0,0,0,.31-.81,1,1,0,0,0-.37-.83,1.26,1.26,0,0,0-.81-.23H215Z" transform="translate(-5.28 -4.98)"/><path class="cls-1" d="M216.26,411.65a5.41,5.41,0,1,1-5.4,5.41,5.41,5.41,0,0,1,5.4-5.41m0-.78a6.19,6.19,0,1,0,6.18,6.19,6.2,6.2,0,0,0-6.18-6.19Z" transform="translate(-5.28 -4.98)"/></svg>