<svg xmlns="http://www.w3.org/2000/svg" xmlns:xlink="http://www.w3.org/1999/xlink" width="55.152" height="55" viewBox="0 0 55.152 55">
  <defs>
    <clipPath id="clip-path">
      <rect id="Rectangle_43" data-name="Rectangle 43" width="55.152" height="55" fill="#f4f4ef"/>
    </clipPath>
  </defs>
  <g id="Group_12" data-name="Group 12" clip-path="url(#clip-path)">
    <path id="Path_28" data-name="Path 28" d="M35.807,54.834q.067-9.787.135-19.575c2.442.021,5.56.235,7.56-.27a20.18,20.18,0,0,0,.945-7.965,2.03,2.03,0,0,0-.54-.27c-.873-.665-6.451-.286-8.1-.27-.042-2.889-.52-7.464,1.215-8.64,1.382-.937,4.356-.708,6.615-.675,1.029-1.412.7-4.466.675-6.885-.109-.138-.048-.037-.135-.27a3.368,3.368,0,0,1-.675-.54c-2.5-.02-5.719-.434-7.965.135-7.9,2-8.31,7.029-8.235,16.875-1.892-.009-3.986.012-5.67.135-.278.417-.467.395-.54,1.08-.465.732-.019,5.488,0,6.885.247.174.231.266.54.405.621.542,4.417.289,5.67.27V54.834H13.532c-6.283,0-10.711.32-12.69-4.05C-.5,47.814.167,42.025.167,37.959V14.874c0-7.485-.637-12.554,5-14.58A13.769,13.769,0,0,1,9.346.024H40.262c7.357,0,12.13-.644,14.31,4.725,1,2.463.405,8.2.405,11.475V40.659c0,4.738.41,8.878-1.62,11.61-2.712,3.651-11.261,2.6-17.55,2.565" transform="translate(0 0)" fill="#f4f4ef" fill-rule="evenodd"/>
  </g>
</svg>
