<svg xmlns="http://www.w3.org/2000/svg" xmlns:xlink="http://www.w3.org/1999/xlink" width="74.759" height="84.088" viewBox="0 0 74.759 84.088">
  <defs>
    <clipPath id="clip-path">
      <rect id="Rectangle_44" data-name="Rectangle 44" width="74.759" height="84.088" fill="none"/>
    </clipPath>
  </defs>
  <g id="Group_13" data-name="Group 13" clip-path="url(#clip-path)">
    <path id="Path_29" data-name="Path 29" d="M74.324,83.653a6.312,6.312,0,0,1-1.738.435c-1.354-1.072-3.551-1.237-5.215-1.956a79.32,79.32,0,0,1-9.561-4.563,135.636,135.636,0,0,1-26.073-19.99l-5.432-5.432C21.754,46.12,16.714,40.39,12.616,33.9a33.18,33.18,0,0,1-2.607-4.346c-.634-1.89,1.437-3.466,2.825-2.607,1.555.583,3.548,5.214,4.563,6.735C21.282,39.5,25.836,44.69,30,50.192l2.608,2.39a22.582,22.582,0,0,0,4.563,4.563c1.941,1.469,3.466,3.741,5.432,5.215A158.09,158.09,0,0,0,61.939,75.179c3.972,2.158,8.633,3.276,12.6,5.432.14.375.043.213.217.435a7.543,7.543,0,0,1-.435,2.608M29.781,31.289c-3.227-.3-5.972-2.691-8.257-4.128a52.809,52.809,0,0,1-16.948-16.3H4.36c.189,5.993.217,12.78.217,19.121,0,2.049.522,5.9-.435,7.17a1.176,1.176,0,0,1-.869.652,2.813,2.813,0,0,1-1.521.217,5.421,5.421,0,0,0-1.086-.869,28.837,28.837,0,0,1,0-9.126c.408-1.93-.183-4.2-.217-5.867C.371,18.414.959,13.781.231,10.43-.053,9.121-.1,1.834.231,1.3.537.47.979.519,1.535,0a2.353,2.353,0,0,1,1.3.217C4.181.742,4.373,2.463,5.012,3.694a62.788,62.788,0,0,0,4.78,7.6C14.01,17.165,23.725,25.5,31.3,27.812a1.549,1.549,0,0,0,.435.869c-.211,1.7-.935,1.787-1.956,2.608" transform="translate(0 0)" fill="#fff" fill-rule="evenodd"/>
  </g>
</svg>
