<?xml version="1.0" encoding="UTF-8"?>
<svg id="Layer_1" data-name="Layer 1" xmlns="http://www.w3.org/2000/svg" viewBox="0 0 425.71 235.71">
  <defs>
    <style>
      .cls-1 {
        fill: #fff;
        fill-rule: evenodd;
      }
    </style>
  </defs>
  <path class="cls-1" d="m425.63,175.15c0-9.47.18-18.37-2.6-24.82-3.44-7.96-10.24-12.52-18.67-15.6-.08-.16-.16-.32-.24-.47,7.44-2.96,13.43-7,16.54-14.18,2.69-6.21,2.6-14.65,2.6-23.64,0-17.64.66-28.42-6.85-38.76-4.49-6.18-12.76-10.41-21.04-12.76-2.72-.77-5.83-1.04-8.51-1.65-1.23-.28-2.89.3-3.78-.24h-34.98c-3.66,0-11.89.82-14.42-.47.02-6.14-2.6-10.66-6.15-13.24-1.25-.91-2.72-1.23-4.02-2.13-1.44-1-2.48-3.55-3.55-4.96-2.24-2.97-6.46-4.9-10.4-6.15-3.42-1.09-9.04,1.03-11.58,0-2.92-1.19-3.98-4.22-6.38-5.91-1.87-1.32-4.35-2.2-6.85-2.84-1.02-.08-2.05-.16-3.07-.24-1.59-.8-2.96-2.59-4.49-3.55-4.09-2.54-9.08-3.68-15.84-3.55-1.21.76-4.42.63-5.91,1.18-4.24,1.58-8.97,4.53-11.35,8.04-2.36-.14-4.2-1.36-6.38-1.89-3.46-.84-7.98.7-9.93,1.89-2.14,1.31-4.58,3.55-5.91,5.67-.79,1.28-.79,2.96-1.65,4.25-.63.95-2.08,1.04-3.07,1.65-1.45.89-2.62,2.72-4.25,3.31-1.32.77-3.24-.59-4.96-.24-2.4.5-5.03.77-7.09,1.65-4.29,1.85-8.08,5.63-10.16,9.69-.95,1.85-.98,5.8-2.13,7.33-.08.16-.16.32-.24.47h-28.84c-16.42,0-31.89-.05-42.07,6.15-7.05,4.29-10.71,10.53-13.71,18.91-.84,2.34-.56,4.25-1.18,6.85-2.45,10.23-1.42,24.39-1.42,36.64v58.85c0,23.81-.41,39.95,9.93,53.65,1.2,1.59,3.27,2.66,4.96,3.78,12.12,8.07,31.79,7.56,52.23,7.56h34.74c3,0,11.46.71,13.24-.47.24-.08.47-.16.71-.24-.16-2.89-2.4-2.43-4.25-3.55-2.39-1.44-5.45-3.46-7.09-5.67-2.83-3.81-4.77-8.43-6.38-13.47-1.18-3.68-.74-7.71-2.6-10.64-12.01-.79-25.17-.24-37.58-.24-5.62,0-12.76.74-16.07-1.65-4.94-3.57-3.55-19.12-3.55-27.89v-64.76c0-9.13-1.35-21.51,2.6-26.94,2.48-3.41,8.98-2.84,14.89-2.84h27.18c4,0,9.68.6,12.53-.71.45-2.39.24-5.73.24-8.51,0-13.54-2.35-30.49,7.33-34.51,4.74-1.97,7.85.61,11.82.71,1.8-1.97,3.11-4.47,5.44-5.91,1.45-.9,4.25-.61,5.67-1.65,1.77-.78,1.04-4.97,1.89-6.62,3.19-6.14,10.37-4.29,13.71.24,4.53-.11,5.6-2.55,7.56-5.2,2.24-3.02,9.35-7.81,15.84-6.38,3.32.73,6.18,1.82,8.51,3.55,1.43,1.06,2.27,3.36,4.02,4.02,1.43.96,4.9-.81,7.33.47,1.9,1.01,2.1,3,3.31,4.73.84,1.2,3.82,1.75,5.2,2.36-.17.8-2.02,3.18-2.6,3.78-.02,1.3.08,2.1.47,2.84,1.96-.14,1.73-.92,2.84-1.65,1.29-.85,3.02-.61,4.73-.47,1.05,1.15,2.29,3.14,4.02,3.55,1.72-1.83,1.01-5.2-.95-6.62v-.47c.08-.08.16-.16.24-.24,5.41-.09,9.32,1.34,11.58,4.96.76,1.22.82,2.82,1.65,4.02.8,1.16,2.61,1.06,4.02,1.65,1.92.81,3.71,2.79,4.49,4.73,1.02,2.52.24,9.52.24,12.76v119.83c0,19.04.63,37.9-6.62,49.63-3.42,5.54-8.5,8.03-14.18,11.35.03.6.03.88.24,1.18v.47c3.52.71,8.52.47,12.76.47h21.98c31.82,0,68.49,3.77,80.83-15.84,6.65-10.57,5.44-27.21,5.44-44.43Zm-61.22-97.85c9.87-.13,18.29.39,20.33,8.04.08,2.52.16,5.04.24,7.56,0,6.13,1.07,17.34-1.42,21.04-1.4,2.08-3.77,2.83-6.38,3.78-1.25.45-8.77,1.83-10.16.95-1.41.03-2.5-.04-3.31-.47v-29.78c0-3.16-.82-9.23.71-11.11Zm18.2,121.49c-3.14,2.27-7.55,2.6-13,2.6-1.45,0-4.21.39-5.2-.24-.24-.08-.47-.16-.71-.24v-34.51c0-2.22-.44-11.9.24-13,.08-.24.16-.47.24-.71.94-.02,2.87-.03,3.55-.47,8.44-.08,15.96,1.45,18.44,7.33,1.21,2.87.71,7.72.71,11.58,0,10.09,1.69,23.36-4.25,27.65ZM246.23,31.68c1.36-3.51.71-5.85,4.73-6.85,2.59-.65,4.29,1.84,5.91.95,1.32-.7.37-2.46-.24-3.31-1.48-2.07-4.25-2.79-8.04-2.6-.82.64-1.98.8-2.84,1.42-2.47,1.78-2.82,4.84-2.6,8.75.49.5,1.05,1.3,1.42,1.89,1.05.06.81.1,1.65-.24Zm30.49.47c.73-.01,1.21-.08,1.65-.24v-1.42c-1.81-1.83-2.62-3.31-6.38-3.31-.49.34-1.43.37-1.89.71-1.07.37-1.41,1.2-2.13,1.89.17.88.35.84.71,1.42,3.39-.5,5.49-1.77,8.04.95Zm-49.63.95c1.41-.42,3.18.6,3.78.24.76-.21.37.13.71-.47.2-.4.11-.73-.24-1.18-.96-1.45-2.93-1.51-5.44-1.42-1.49,1.16-3.43,1.48-3.78,3.78-.23.43-.06.43,0,1.18.08.08.16.16.24.24,2.32-.12,2.84-1.81,4.73-2.36Zm-8.27,11.35c.11.75.24.89.47,1.42,6.53,1.48,15.19.89,22.93.95,12,.09,25.32,0,37.34,0,4.88-.08,9.77-.16,14.65-.24,2.27,0,5.5.31,6.85-.71.99-.36,1.16-1.16.47-1.89-2.69-2.03-11.05.17-15.13-.71-3.73-.8-8.74.63-12.76-.24-2.4-.52-5.94-.24-8.75-.24h-16.78c-1.11.69-6.46.24-8.27.24-6.62.16-13.24.32-19.85.47-.33.35-.77.69-1.18.95Zm-127.4-.95c-2.1-.82-5.9-.47-8.75-.47H1.84c-.32.31-.75.51-1.18.71-.81,2.04-.47,5.73-.47,8.51v17.25c0,2.36-.65,7.04.47,8.51.32.32.63.63.95.95h17.73c2.47,0,6.1-.4,7.8.47v142.52c0,2.3-.63,9.94.24,11.35.11,1.06.31,1.01.71,1.65,2.81.6,6.89.47,10.4.47h16.31c2.65,0,7.69.71,9.45-.47,1.97-.84,1.18-6.26,1.18-8.98V88.64c0-1.94-.5-7.79.24-8.98.75-1.24,4.48-.71,6.38-.71h18.67c.33-.35.77-.69,1.18-.95.46-2.38.24-5.74.24-8.51v-16.07c0-3.23.48-7.82-.71-9.93Zm219.1,136.61v-92.89c0-5.14.96-14.84-.95-18.2-1.67-.33-4.11-.26-6.15-.24-1.19.76-3.07.11-4.73.47-3.45.75-6.73.5-10.16,1.42-5.36,1.43-11,2.39-16.07,4.25-1.47.54-5.08,2.65-7.09,2.13-4.62-1.19-9.3-3.25-14.18-4.49-11.47-2.93-24.12,1.59-30.73,5.91-2.31,1.51-5.81,4.64-6.62,7.56v88.87c0,22.29-1.12,37.27,13,45.85,5.49,3.34,17.97,5.43,26.71,5.44,4.49.08,8.98.16,13.47.24h4.73c3.06-.66,6.36-.19,9.69-.95,8.87-2.02,18.04-3.73,22.69-9.93,6.59-8.79,6.38-20.01,6.38-35.45Zm-113.45-65.94v-13c0-1.81.28-4.31-.47-5.44-.82-1.93-5.85-1.18-8.51-1.18h-25.76c-.58.36-1.67.17-2.36.47-1.2.51-2.96,2.17-3.55,3.31-2.16,4.19-1.18,12.65-1.18,18.67v41.6c0,6.65-1.12,18.3,1.65,22.22,2.96,4.18,12.85,2.84,19.85,2.84h13.95c1.77,0,4.4.31,5.44-.47,1.19-1,.95-3.5.95-5.67v-63.34Z"/>
</svg>