<?xml version="1.0" encoding="UTF-8"?>
<svg id="Layer_1" data-name="Layer 1" xmlns="http://www.w3.org/2000/svg" viewBox="0 0 218.22 254.54">
  <defs>
    <style>
      .cls-1 {
        fill: none;
      }

      .cls-2, .cls-3 {
        fill: #fff;
      }

      .cls-3 {
        isolation: isolate;
        opacity: .3;
      }

      .cls-4 {
        opacity: .4;
      }
    </style>
  </defs>
  <polygon class="cls-1" points="111.82 104.04 142.71 104.15 127.38 11.52 111.82 104.04"/>
  <polygon class="cls-1" points="111.82 104.04 142.71 104.15 127.38 11.52 111.82 104.04"/>
  <path class="cls-1" d="m62.4,38.15v-2.91c0-22.59-5.85-30.8-24.33-30.8h-6v66.52h7c17.68.04,23.33-8.58,23.33-32.81Z"/>
  <path class="cls-1" d="m54.76,73.67c10.13,3.09,17.36,7.83,21.9,14.54l-4.42-26.06c-4.78,5.23-10.79,9.19-17.48,11.52Z"/>
  <path class="cls-1" d="m39.77,75.72h-7.72v71.86h8.13c17.86,0,24.33-9.44,24.33-34.08,0-28.13-5.65-37.78-24.74-37.78Z"/>
  <path class="cls-1" d="m32.05,75.72v71.86h8.13c17.86,0,24.33-9.44,24.33-34.08,0-28.13-5.65-37.78-24.74-37.78h-7.72Z"/>
  <path class="cls-1" d="m38.07,4.48h-6v66.52h7c17.66,0,23.31-8.62,23.31-32.85v-2.91c.02-22.55-5.83-30.76-24.31-30.76Z"/>
  <path class="cls-2" d="m100.12,126.62c-.08.41-.16.81-.23,1.2.07-.4.15-.79.23-1.2Z"/>
  <polygon class="cls-1" points="111.82 104.04 142.71 104.15 127.38 11.52 111.82 104.04"/>
  <path class="cls-2" d="m177.97,147.77c-1.74-.12-5.95-1-9.74-6.47-2.16-3.12-4-13.45-4-13.45h0L142,.15h-18.07l-5.05,26.85v.19l-18.72,99.43c-.08.41-.16.8-.23,1.2-.62,3.2-1.14,6-1.77,8.38h0v-.14s-2.58,8.66-6.31,8.43c-1.23-.08-2.37-1.14-3.32-2.48-3.27-5.25-4.76-13.27-6.93-24.71l-4.94-29.06c-4.54-6.71-11.77-11.45-21.9-14.54,6.69-2.34,12.7-6.31,17.48-11.55l-5.87-34.91L61.14.16h-1.65L1.49,0v4.51h2.88c2.37.29,8.3,1.68,9.57,8.45.09.52.16,1.19.22,1.94v122.4c-.06.75-.13,1.42-.22,1.94-1.16,6.15-6.15,7.86-8.84,8.34H1.14v4.52h37c22,0,36.57-9.42,42-26,.74,4.09,1.28,8.22,1.6,12.36,0,6.57-2.95,9-11.36,9.23v4.55h47.86v-4.51c-8.42-.21-11.5-2.67-11.5-9.24,0-2.4.14-4.8.41-7.19l3.69-22h33.14l3.47,18.77c0,.09,1.4,10.39.78,13.49-1,5.08-6.08,6-8.63,6.14h-5.76v4.54h47.07v-4.51l-2.94.04ZM32.05,4.48h6c18.48,0,24.33,8.21,24.33,30.8v2.87c0,24.23-5.65,32.85-23.31,32.85h-7l-.02-66.52Zm8.13,143.1h-8.13v-71.86h7.72c19.09,0,24.74,9.65,24.74,37.78,0,24.64-6.47,34.08-24.33,34.08h0Zm71.64-43.54l15.56-92.52,15.33,92.62-30.89-.1Z"/>
  <path class="cls-2" d="m.34,169.63h8.06c4,0,8.87,2.22,8.87,9.07,0,4-1.82,7.16-5.85,8v.1c4.49,1.06,6.55,4.18,6.55,8.72,0,6.55-4.43,10-9.27,10H.34v-35.89Zm6.55,14.71c3.27,0,4.13-1.51,4.13-4.73,0-4.08-.86-4.79-4.13-4.74v9.47Zm0,15.92c3.93,0,4.53-1.56,4.53-5.29,0-3.27-.8-5.14-4.53-5.09v10.38Z"/>
  <path class="cls-2" d="m27.14,169.63h7.35c6.25,0,10.38,2.62,10.38,10.18,0,3-.9,7.05-3.83,8.77l3.88,16.92h-6.6l-3.08-15.41h-1.55v15.41h-6.55v-35.87Zm6.55,15.22h1.31c2.42,0,3.32-2.42,3.32-5,0-3.88-1.41-5-3.62-5h-1v10Z"/>
  <path class="cls-2" d="m53.94,169.63h14.81v5.55h-8.26v9.16h6.1v5.9h-6.1v9.77h8.61v5.54h-15.16v-35.92Z"/>
  <path class="cls-2" d="m76.05,169.63h5.95l2.32,21.06h.1l3.12-21.06h5.9l2.87,21.06h.1l2.57-21.06h4.68l-4.68,35.87h-6l-3.12-22.72h-.1l-3.23,22.72h-5.69l-4.79-35.87Z"/>
  <path class="cls-2" d="m112.24,169.63h14.81v5.55h-8.27v9.16h6.1v5.9h-6.1v9.77h8.62v5.54h-15.16v-35.92Z"/>
  <path class="cls-2" d="m136.3,169.63h7.36c6.25,0,10.38,2.62,10.38,10.18,0,3-.91,7.05-3.83,8.77l3.88,16.92h-6.6l-3.07-15.41h-1.57v15.41h-6.55v-35.87Zm6.55,15.22h1.31c2.42,0,3.33-2.42,3.33-5,0-3.88-1.41-5-3.63-5h-1v10Z"/>
  <path class="cls-2" d="m167.59,195.12c0,2,0,5.55,2.82,5.55,2.17,0,2.92-2,2.92-3.48,0-6.4-11.89-7.86-11.89-18.49,0-5.39,2.92-9.77,8.47-9.77,5.89,0,8.16,4.48,8.31,10.93h-5.85c0-2,0-5.39-2.61-5.39-1.57,0-2.47,1.31-2.47,3.27,0,6.1,11.89,8.17,11.89,18.59,0,5.49-3.13,9.88-9,9.88-7,0-8.42-6.15-8.42-11.09h5.83Z"/>
  <path class="cls-2" d="m3.33,215.09h6.26l2.92,23.69h-4.16l-.63-5.26h-3.48l-.6,5.26H0l3.33-23.69Zm2.76,3.66h-.07l-1.36,11.31h2.7l-1.27-11.31Z"/>
  <path class="cls-2" d="m21.9,231.93c0,1.33,0,3.66,1.86,3.66,1.14-.07,2.01-1.05,1.94-2.19,0-.04,0-.07,0-.11,0-4.23-7.85-5.19-7.85-12.21,0-3.56,1.93-6.46,5.59-6.46,3.89,0,5.39,3,5.49,7.22h-3.86c0-1.33,0-3.56-1.73-3.56-1,0-1.63.87-1.63,2.17,0,4,7.85,5.39,7.85,12.28,0,3.62-2.06,6.52-6,6.52-4.63,0-5.56-4.06-5.56-7.32h3.91Z"/>
  <path class="cls-2" d="m39.04,231.93c0,1.33,0,3.66,1.86,3.66,1.14-.07,2.01-1.05,1.94-2.19,0-.04,0-.07,0-.11,0-4.23-7.85-5.19-7.85-12.21,0-3.56,1.93-6.46,5.59-6.46,3.89,0,5.39,3,5.49,7.22h-3.82c0-1.33,0-3.56-1.73-3.56-1,0-1.63.87-1.63,2.17,0,4,7.85,5.39,7.85,12.28,0,3.62-2.06,6.52-6,6.52-4.63,0-5.56-4.06-5.56-7.32h3.87Z"/>
  <path class="cls-2" d="m58.91,214.62c3.82,0,6.32,3,6.32,12.32s-2.5,12.3-6.32,12.3-6.33-3-6.33-12.31,2.5-12.31,6.33-12.31Zm-1.6,14.81c0,5.13.6,6.16,1.6,6.16s1.59-1,1.59-6.16v-5c0-5.13-.6-6.16-1.59-6.16s-1.6,1-1.6,6.16v5Z"/>
  <path class="cls-2" d="m79.47,223.67c0-3.92-.5-5.39-1.56-5.39-.9,0-1.8.6-1.8,8.66s.47,8.65,1.8,8.65,1.76-2.2,1.83-5.63l3.66.17c0,4.13-.6,9.12-5.66,9.12-4.62,0-6.15-4.53-6.15-12.31,0-9.06,2.72-12.32,6.15-12.32,5,0,5.59,4.59,5.59,8.92l-3.86.13Z"/>
  <path class="cls-2" d="m90.42,215.09h4.33v23.69h-4.33v-23.69Z"/>
  <path class="cls-2" d="m104.33,215.09h6.26l2.93,23.69h-4.16l-.63-5.26h-3.49l-.6,5.26h-3.63l3.32-23.69Zm2.77,3.66h-.07l-1.37,11.31h2.7l-1.26-11.31Z"/>
  <path class="cls-2" d="m120.71,218.75h-3.73v-3.66h11.78v3.66h-3.72v20h-4.33v-20Z"/>
  <path class="cls-2" d="m134.49,215.09h4.32v23.69h-4.32v-23.69Z"/>
  <path class="cls-2" d="m151.96,214.62c3.83,0,6.32,3,6.32,12.32s-2.49,12.3-6.32,12.3-6.32-3-6.32-12.31,2.49-12.31,6.32-12.31Zm-1.6,14.81c0,5.13.6,6.16,1.6,6.16s1.6-1,1.6-6.16v-5c0-5.13-.6-6.16-1.6-6.16s-1.6,1-1.6,6.16v5Z"/>
  <path class="cls-2" d="m165.11,215.09h4.22l4,12.51h.07v-12.51h3.46v23.69h-3.36l-4.63-14.34h-.06v14.34h-3.66l-.04-23.69Z"/>
  <g class="cls-4">
    <path class="cls-2" d="m.34,169.63h8.06c4,0,8.87,2.22,8.87,9.07,0,4-1.82,7.16-5.85,8v.1c4.49,1.06,6.55,4.18,6.55,8.72,0,6.55-4.43,10-9.27,10H.34v-35.89Zm6.55,14.71c3.27,0,4.13-1.51,4.13-4.73,0-4.08-.86-4.79-4.13-4.74v9.47Zm0,15.92c3.93,0,4.53-1.56,4.53-5.29,0-3.27-.8-5.14-4.53-5.09v10.38Z"/>
    <path class="cls-2" d="m27.14,169.63h7.35c6.25,0,10.38,2.62,10.38,10.18,0,3-.9,7.05-3.83,8.77l3.88,16.92h-6.6l-3.08-15.41h-1.55v15.41h-6.55v-35.87Zm6.55,15.22h1.31c2.42,0,3.32-2.42,3.32-5,0-3.88-1.41-5-3.62-5h-1v10Z"/>
    <path class="cls-2" d="m53.94,169.63h14.81v5.55h-8.26v9.16h6.1v5.9h-6.1v9.77h8.61v5.54h-15.16v-35.92Z"/>
    <path class="cls-2" d="m76.05,169.63h5.95l2.32,21.06h.1l3.12-21.06h5.9l2.87,21.06h.1l2.57-21.06h4.68l-4.68,35.87h-6l-3.12-22.72h-.1l-3.23,22.72h-5.69l-4.79-35.87Z"/>
    <path class="cls-2" d="m112.24,169.63h14.81v5.55h-8.27v9.16h6.1v5.9h-6.1v9.77h8.62v5.54h-15.16v-35.92Z"/>
    <path class="cls-2" d="m136.3,169.63h7.36c6.25,0,10.38,2.62,10.38,10.18,0,3-.91,7.05-3.83,8.77l3.88,16.92h-6.6l-3.07-15.41h-1.57v15.41h-6.55v-35.87Zm6.55,15.22h1.31c2.42,0,3.33-2.42,3.33-5,0-3.88-1.41-5-3.63-5h-1v10Z"/>
    <path class="cls-2" d="m167.59,195.12c0,2,0,5.55,2.82,5.55,2.17,0,2.92-2,2.92-3.48,0-6.4-11.89-7.86-11.89-18.49,0-5.39,2.92-9.77,8.47-9.77,5.89,0,8.16,4.48,8.31,10.93h-5.85c0-2,0-5.39-2.61-5.39-1.57,0-2.47,1.31-2.47,3.27,0,6.1,11.89,8.17,11.89,18.59,0,5.49-3.13,9.88-9,9.88-7,0-8.42-6.15-8.42-11.09h5.83Z"/>
    <path class="cls-2" d="m3.33,215.09h6.26l2.92,23.69h-4.16l-.63-5.26h-3.48l-.6,5.26H0l3.33-23.69Zm2.76,3.66h-.07l-1.36,11.31h2.7l-1.27-11.31Z"/>
    <path class="cls-2" d="m21.9,231.93c0,1.33,0,3.66,1.86,3.66,1.14-.07,2.01-1.05,1.94-2.19,0-.04,0-.07,0-.11,0-4.23-7.85-5.19-7.85-12.21,0-3.56,1.93-6.46,5.59-6.46,3.89,0,5.39,3,5.49,7.22h-3.86c0-1.33,0-3.56-1.73-3.56-1,0-1.63.87-1.63,2.17,0,4,7.85,5.39,7.85,12.28,0,3.62-2.06,6.52-6,6.52-4.63,0-5.56-4.06-5.56-7.32h3.91Z"/>
    <path class="cls-2" d="m39.04,231.93c0,1.33,0,3.66,1.86,3.66,1.14-.07,2.01-1.05,1.94-2.19,0-.04,0-.07,0-.11,0-4.23-7.85-5.19-7.85-12.21,0-3.56,1.93-6.46,5.59-6.46,3.89,0,5.39,3,5.49,7.22h-3.82c0-1.33,0-3.56-1.73-3.56-1,0-1.63.87-1.63,2.17,0,4,7.85,5.39,7.85,12.28,0,3.62-2.06,6.52-6,6.52-4.63,0-5.56-4.06-5.56-7.32h3.87Z"/>
    <path class="cls-2" d="m58.91,214.62c3.82,0,6.32,3,6.32,12.32s-2.5,12.3-6.32,12.3-6.33-3-6.33-12.31,2.5-12.31,6.33-12.31Zm-1.6,14.81c0,5.13.6,6.16,1.6,6.16s1.59-1,1.59-6.16v-5c0-5.13-.6-6.16-1.59-6.16s-1.6,1-1.6,6.16v5Z"/>
    <path class="cls-2" d="m79.47,223.67c0-3.92-.5-5.39-1.56-5.39-.9,0-1.8.6-1.8,8.66s.47,8.65,1.8,8.65,1.76-2.2,1.83-5.63l3.66.17c0,4.13-.6,9.12-5.66,9.12-4.62,0-6.15-4.53-6.15-12.31,0-9.06,2.72-12.32,6.15-12.32,5,0,5.59,4.59,5.59,8.92l-3.86.13Z"/>
    <path class="cls-2" d="m90.42,215.09h4.33v23.69h-4.33v-23.69Z"/>
    <path class="cls-2" d="m104.33,215.09h6.26l2.93,23.69h-4.16l-.63-5.26h-3.49l-.6,5.26h-3.63l3.32-23.69Zm2.77,3.66h-.07l-1.37,11.31h2.7l-1.26-11.31Z"/>
    <path class="cls-2" d="m120.71,218.75h-3.73v-3.66h11.78v3.66h-3.72v20h-4.33v-20Z"/>
    <path class="cls-2" d="m134.49,215.09h4.32v23.69h-4.32v-23.69Z"/>
    <path class="cls-2" d="m151.96,214.62c3.83,0,6.32,3,6.32,12.32s-2.49,12.3-6.32,12.3-6.32-3-6.32-12.31,2.49-12.31,6.32-12.31Zm-1.6,14.81c0,5.13.6,6.16,1.6,6.16s1.6-1,1.6-6.16v-5c0-5.13-.6-6.16-1.6-6.16s-1.6,1-1.6,6.16v5Z"/>
    <path class="cls-2" d="m165.11,215.09h4.22l4,12.51h.07v-12.51h3.46v23.69h-3.36l-4.63-14.34h-.06v14.34h-3.66l-.04-23.69Z"/>
    <path class="cls-3" d="m.34,169.63h8.06c4,0,8.87,2.22,8.87,9.07,0,4-1.82,7.16-5.85,8v.1c4.49,1.06,6.55,4.18,6.55,8.72,0,6.55-4.43,10-9.27,10H.34v-35.89Zm6.55,14.71c3.27,0,4.13-1.51,4.13-4.73,0-4.08-.86-4.79-4.13-4.74v9.47Zm0,15.92c3.93,0,4.53-1.56,4.53-5.29,0-3.27-.8-5.14-4.53-5.09v10.38Z"/>
    <path class="cls-3" d="m27.14,169.63h7.35c6.25,0,10.38,2.62,10.38,10.18,0,3-.9,7.05-3.83,8.77l3.88,16.92h-6.6l-3.08-15.41h-1.55v15.41h-6.55v-35.87Zm6.55,15.22h1.31c2.42,0,3.32-2.42,3.32-5,0-3.88-1.41-5-3.62-5h-1v10Z"/>
    <path class="cls-3" d="m53.94,169.63h14.81v5.55h-8.26v9.16h6.1v5.9h-6.1v9.77h8.61v5.54h-15.16v-35.92Z"/>
    <path class="cls-3" d="m76.05,169.63h5.95l2.32,21.06h.1l3.12-21.06h5.9l2.87,21.06h.1l2.57-21.06h4.68l-4.68,35.87h-6l-3.12-22.72h-.1l-3.23,22.72h-5.69l-4.79-35.87Z"/>
    <path class="cls-3" d="m112.24,169.63h14.81v5.55h-8.27v9.16h6.1v5.9h-6.1v9.77h8.62v5.54h-15.16v-35.92Z"/>
    <path class="cls-3" d="m136.3,169.63h7.36c6.25,0,10.38,2.62,10.38,10.18,0,3-.91,7.05-3.83,8.77l3.88,16.92h-6.6l-3.07-15.41h-1.57v15.41h-6.55v-35.87Zm6.55,15.22h1.31c2.42,0,3.33-2.42,3.33-5,0-3.88-1.41-5-3.63-5h-1v10Z"/>
    <path class="cls-3" d="m167.59,195.12c0,2,0,5.55,2.82,5.55,2.17,0,2.92-2,2.92-3.48,0-6.4-11.89-7.86-11.89-18.49,0-5.39,2.92-9.77,8.47-9.77,5.89,0,8.16,4.48,8.31,10.93h-5.85c0-2,0-5.39-2.61-5.39-1.57,0-2.47,1.31-2.47,3.27,0,6.1,11.89,8.17,11.89,18.59,0,5.49-3.13,9.88-9,9.88-7,0-8.42-6.15-8.42-11.09h5.83Z"/>
    <path class="cls-3" d="m3.33,215.09h6.26l2.92,23.69h-4.16l-.63-5.26h-3.48l-.6,5.26H0l3.33-23.69Zm2.76,3.66h-.07l-1.36,11.31h2.7l-1.27-11.31Z"/>
    <path class="cls-3" d="m21.9,231.93c0,1.33,0,3.66,1.86,3.66,1.14-.07,2.01-1.05,1.94-2.19,0-.04,0-.07,0-.11,0-4.23-7.85-5.19-7.85-12.21,0-3.56,1.93-6.46,5.59-6.46,3.89,0,5.39,3,5.49,7.22h-3.86c0-1.33,0-3.56-1.73-3.56-1,0-1.63.87-1.63,2.17,0,4,7.85,5.39,7.85,12.28,0,3.62-2.06,6.52-6,6.52-4.63,0-5.56-4.06-5.56-7.32h3.91Z"/>
    <path class="cls-3" d="m39.04,231.93c0,1.33,0,3.66,1.86,3.66,1.14-.07,2.01-1.05,1.94-2.19,0-.04,0-.07,0-.11,0-4.23-7.85-5.19-7.85-12.21,0-3.56,1.93-6.46,5.59-6.46,3.89,0,5.39,3,5.49,7.22h-3.82c0-1.33,0-3.56-1.73-3.56-1,0-1.63.87-1.63,2.17,0,4,7.85,5.39,7.85,12.28,0,3.62-2.06,6.52-6,6.52-4.63,0-5.56-4.06-5.56-7.32h3.87Z"/>
    <path class="cls-3" d="m58.91,214.62c3.82,0,6.32,3,6.32,12.32s-2.5,12.3-6.32,12.3-6.33-3-6.33-12.31,2.5-12.31,6.33-12.31Zm-1.6,14.81c0,5.13.6,6.16,1.6,6.16s1.59-1,1.59-6.16v-5c0-5.13-.6-6.16-1.59-6.16s-1.6,1-1.6,6.16v5Z"/>
    <path class="cls-3" d="m79.47,223.67c0-3.92-.5-5.39-1.56-5.39-.9,0-1.8.6-1.8,8.66s.47,8.65,1.8,8.65,1.76-2.2,1.83-5.63l3.66.17c0,4.13-.6,9.12-5.66,9.12-4.62,0-6.15-4.53-6.15-12.31,0-9.06,2.72-12.32,6.15-12.32,5,0,5.59,4.59,5.59,8.92l-3.86.13Z"/>
    <path class="cls-3" d="m90.42,215.09h4.33v23.69h-4.33v-23.69Z"/>
    <path class="cls-3" d="m104.33,215.09h6.26l2.93,23.69h-4.16l-.63-5.26h-3.49l-.6,5.26h-3.63l3.32-23.69Zm2.77,3.66h-.07l-1.37,11.31h2.7l-1.26-11.31Z"/>
    <path class="cls-3" d="m120.71,218.75h-3.73v-3.66h11.78v3.66h-3.72v20h-4.33v-20Z"/>
    <path class="cls-3" d="m134.49,215.09h4.32v23.69h-4.32v-23.69Z"/>
    <path class="cls-3" d="m151.96,214.62c3.83,0,6.32,3,6.32,12.32s-2.49,12.3-6.32,12.3-6.32-3-6.32-12.31,2.49-12.31,6.32-12.31Zm-1.6,14.81c0,5.13.6,6.16,1.6,6.16s1.6-1,1.6-6.16v-5c0-5.13-.6-6.16-1.6-6.16s-1.6,1-1.6,6.16v5Z"/>
    <path class="cls-3" d="m165.11,215.09h4.22l4,12.51h.07v-12.51h3.46v23.69h-3.36l-4.63-14.34h-.06v14.34h-3.66l-.04-23.69Z"/>
  </g>
  <polygon class="cls-2" points="61.13 .13 61.14 .16 66.37 27.28 85.4 27.25 90.84 135.26 91 27.24 118.84 27.2 123.94 .15 125.88 .15 61.13 .13"/>
  <path class="cls-2" d="m216.64,245.24c2.1,2.14,2.1,5.56,0,7.7-1.03,1.02-2.42,1.59-3.87,1.6-3.01-.04-5.43-2.47-5.46-5.48,0-1.47.6-2.87,1.65-3.9,1-1.02,2.38-1.58,3.81-1.56,1.46,0,2.86.59,3.87,1.64Zm-7.16.5c-.89.88-1.4,2.07-1.41,3.32.01,2.54,2.05,4.61,4.59,4.66,1.26,0,2.47-.48,3.37-1.36.87-.84,1.36-2.01,1.36-3.22.04-2.57-2.01-4.7-4.58-4.74-.03,0-.05,0-.08,0-1.22-.02-2.39.46-3.25,1.33h0Zm3.38.17c1.72,0,2.58.59,2.58,1.67.05.83-.54,1.56-1.36,1.69l1.36,2.77h-1.47l-1.21-2.56h-.95v2.56h-1.32v-6.13h2.37Zm-1.05,2.75h.86c1,0,1.43-.27,1.43-.93s-.49-1-1.49-1h-.8v1.93Z"/>
</svg>