<svg xmlns="http://www.w3.org/2000/svg" xmlns:xlink="http://www.w3.org/1999/xlink" width="55.047" height="55" viewBox="0 0 55.047 55">
  <defs>
    <clipPath id="clip-path">
      <rect id="Rectangle_41" data-name="Rectangle 41" width="55.047" height="55" fill="#f4f4ef"/>
    </clipPath>
  </defs>
  <g id="Group_8" data-name="Group 8" clip-path="url(#clip-path)">
    <path id="Path_26" data-name="Path 26" d="M54.917,36.727V22.518c0-7.626.536-12.887-2.77-17.34A14.761,14.761,0,0,0,43.719.12L39.865,0h-27.7c-.4.246-1.053.1-1.565.241L8.437.963a14.369,14.369,0,0,0-7.1,6.5c-1.51,3-1.325,7.46-1.325,12.042V35.523c0,6.052-.057,10.2,2.408,13.728A14.776,14.776,0,0,0,10.6,54.669c2.024.558,4.949.241,7.345.241H39.986l3.733-.12A18.387,18.387,0,0,0,48.9,52.743c2.87-1.714,5-5.3,5.9-9.031.481-2,.12-4.765.12-6.984M49.5,19.146V36.727c0,5.324-.051,8.84-3.131,11.078-3.164,2.3-9.592,1.686-15.052,1.686H18.19c-2.168,0-4.816.3-6.623-.241a8.929,8.929,0,0,1-4.456-2.89c-1.733-2.385-1.686-5.883-1.686-10.115V19.387c0-3.365-.317-7.254.843-9.513A8.956,8.956,0,0,1,10.6,5.9c.711-.253,1.493-.1,2.047-.482H34.928c4.775,0,8.673-.328,11.44,1.686C49.649,9.493,49.5,13.5,49.5,19.146m-8.67-8.188c-.219.16-.632.2-.843.361-.848.285-.918.986-1.445,1.565-.083,2.751,1.112,3.591,3.492,3.492a15.059,15.059,0,0,1,1.565-1.2c.59-2.3.005-4.241-2.77-4.215M31.8,14.33a15.688,15.688,0,0,0-5.419-.6c-.264.163-.68.024-1.084.12a21.108,21.108,0,0,0-3.131.843,14.13,14.13,0,0,0-7.827,8.429,11.433,11.433,0,0,0-.482,5.539,25.244,25.244,0,0,0,.482,3.131A13.559,13.559,0,0,0,22.285,40.1c1.378.582,3.938,1.559,6.141,1.084l2.89-.482a13.986,13.986,0,0,0,8.79-7.707,21.2,21.2,0,0,0,.963-3.372,12.069,12.069,0,0,0-.361-5.539c-1.458-4.948-4.255-8.058-8.911-9.754m3.853,13.728a12.486,12.486,0,0,1-.723,3.251c-1.329,2.6-3.593,3.734-6.864,4.455a6.873,6.873,0,0,1-4.094-.843c-3.265-1.64-6.267-5.8-4.215-10.717a8.612,8.612,0,0,1,4.455-4.455c.75-.317,1.931-.169,2.649-.6,4.764-.041,7.156,2.29,8.429,5.78a6.22,6.22,0,0,1,.361,3.131" transform="translate(0)" fill="#f4f4ef" fill-rule="evenodd"/>
  </g>
</svg>
