<svg xmlns="http://www.w3.org/2000/svg" xmlns:xlink="http://www.w3.org/1999/xlink" width="54.898" height="55" viewBox="0 0 54.898 55">
  <defs>
    <clipPath id="clip-path">
      <rect id="Rectangle_42" data-name="Rectangle 42" width="54.898" height="55" fill="#f4f4ef"/>
    </clipPath>
  </defs>
  <g id="Group_10" data-name="Group 10" clip-path="url(#clip-path)">
    <path id="Path_27" data-name="Path 27" d="M51.179,2.342C47.4-.466,43.024.035,36.567.035H9.265c-.743.466-1.86.3-2.692.641A11.25,11.25,0,0,0,1.19,5.418C-.318,8.274.036,13.1.036,17.467V37.975c0,5.924-.206,9.818,2.307,13.2,2.933,3.95,7.572,3.717,14.356,3.717H32.721c7.267,0,14.2.855,18.458-2.307,3.64-2.7,3.717-6.98,3.717-13.331V16.826c0-6.77.182-11.586-3.717-14.484M41.95,21.184a18.633,18.633,0,0,1-1.666,9.1c-2.7,6.295-7.085,10.6-14.1,12.561-4.789,1.341-10.5.274-14.1-1.282A6.159,6.159,0,0,1,9.65,40.282H9.393v-.128c5.741-.049,7.3-.923,10.767-3.076-.776-.486-2.547-.461-3.461-1.025a9.218,9.218,0,0,1-2.435-2.179c-.382-.557-.481-1.275-.9-1.795v-.256a20.46,20.46,0,0,0,2.948-.128c-.489-.375-1.19-.366-1.794-.641a7.889,7.889,0,0,1-2.435-1.923,10.139,10.139,0,0,1-1.538-2.82c-.148-.459-.031-1.05-.256-1.41V24.26a16.059,16.059,0,0,1,2.948.9h.513c-.4-.576-1.129-.858-1.538-1.41a7.646,7.646,0,0,1-1.538-5.9c.223-.967.74-1.759.9-2.692.893.376,1.636,1.642,2.307,2.307a21.622,21.622,0,0,0,3.845,2.82,23.7,23.7,0,0,0,6.024,2.307c.862.23,2-.033,2.692.384h.769a7.718,7.718,0,0,1,3.333-8.2c.868-.542,2.156-.453,3.076-1.025,2.817-.013,5.047.625,6.153,2.307,1.344-.037,4.013-.926,4.614-1.666h.256c-.292,1.885-1.748,2.732-2.82,3.845h-.128v.128a7.456,7.456,0,0,0,3.717-1.025h.256a12.273,12.273,0,0,1-3.717,3.845" transform="translate(0 0)" fill="#f4f4ef" fill-rule="evenodd"/>
  </g>
</svg>
